#N canvas 457 216 539 418 12;
#X obj 52 40 openpanel;
#X obj 52 12 bng 20 250 50 0 empty empty empty 0 -10 0 12 #fcfcfc #000000 #000000;
#X msg 52 64 read -resize \$1 sound;
#X obj 52 88 soundfiler;
#X obj 46 342 dac~ 1 2;
#X floatatom 56 116 5 0 0 0 - - - 0;
#X floatatom 104 115 5 0 0 0 - - - 0;
#X obj 67 268 phasor~;
#X obj 68 174 /;
#X floatatom 68 198 12 0 0 0 - - - 0;
#X obj 68 145 swap;
#X obj 67 314 tabread4~ sound;
#X obj 67 290 *~;
#X obj 68 221 sig~;
#X obj 68 245 *~;
#X obj 185 137 vsl 20 170 -10 10 0 0 empty empty empty 0 -9 0 12 #fcfcfc #000000 #000000 0 1;
#X msg 185 105 1;
#X floatatom 185 318 5 0 0 0 - - - 0;
#X msg 151 106 2;
#X msg 148 133 4;
#X msg 146 161 3;
#X msg 166 82 0.5;
#N canvas 0 50 450 250 (subpatch) 0;
#X array sound 100 float 3;
#A 0 0 0 0 0 0 0 0 0 0 0 0 0 0 0 0 0 0 0 0 0 0 0 0 0 0 0 0 0 0 0 0 0 0 0 0 0 0 0 0 0 0 0 0 0 0 0 0 0 0 0 0 0 0 0 0 0 0 0 0 0 0 0 0 0 0 0 0 0 0 0 0 0 0 0 0 0 0 0 0 0 0 0 0 0 0 0 0 0 0 0 0 0 0 0 0 0 0 0 0 0;
#X coords 0 1 100 -1 200 140 1;
#X restore 262 26 graph;
#X connect 0 0 2 0;
#X connect 1 0 0 0;
#X connect 2 0 3 0;
#X connect 3 0 5 0;
#X connect 3 1 6 0;
#X connect 5 0 10 0;
#X connect 5 0 12 1;
#X connect 6 0 10 1;
#X connect 7 0 12 0;
#X connect 8 0 9 0;
#X connect 9 0 13 0;
#X connect 10 0 8 0;
#X connect 10 1 8 1;
#X connect 11 0 4 0;
#X connect 11 0 4 1;
#X connect 12 0 11 0;
#X connect 13 0 14 0;
#X connect 14 0 7 0;
#X connect 15 0 14 1;
#X connect 15 0 17 0;
#X connect 16 0 15 0;
#X connect 18 0 15 0;
#X connect 19 0 15 0;
#X connect 20 0 15 0;
#X connect 21 0 15 0;
